<svg class="d-none" xmlns="http://www.w3.org/2000/svg">
    <defs>
        <symbol id="quote-icon" viewBox="0 0 24 24" fill="none">
            <path d="M6.93799 4.501C8.93799 4.448 11.11 5.936 11.461 9.101L11.488 9.414L11.489 9.42C11.68 12.739 9.36499 17.277 4.30799 19.459C4.19548 19.5075 4.06905 19.5131 3.95273 19.4745C3.83641 19.436 3.73828 19.3561 3.67699 19.25L2.56699 17.331C2.53389 17.2737 2.5125 17.2104 2.50404 17.1448C2.49558 17.0792 2.50023 17.0125 2.51772 16.9487C2.53521 16.8849 2.56518 16.8252 2.60591 16.7731C2.64664 16.7209 2.69731 16.6774 2.75499 16.645C4.46499 15.683 5.79799 14.174 6.59999 12.343C5.40999 12.133 4.55499 11.64 3.98199 10.983C3.31499 10.217 3.07699 9.283 3.07699 8.466C3.07699 6.252 4.77999 4.461 6.93699 4.501M16.937 4.501C18.937 4.448 21.109 5.936 21.46 9.101L21.487 9.414L21.488 9.42C21.679 12.739 19.364 17.277 14.307 19.459C14.1945 19.5075 14.0681 19.5131 13.9517 19.4745C13.8354 19.436 13.7373 19.3561 13.676 19.25L12.566 17.331C12.5329 17.2737 12.5115 17.2104 12.503 17.1448C12.4946 17.0792 12.4992 17.0125 12.5167 16.9487C12.5342 16.8849 12.5642 16.8252 12.6049 16.7731C12.6456 16.7209 12.6963 16.6774 12.754 16.645C14.464 15.683 15.797 14.174 16.599 12.343C15.409 12.133 14.554 11.64 13.981 10.983C13.314 10.217 13.076 9.283 13.076 8.466C13.076 6.252 14.781 4.461 16.937 4.501Z" fill="currentColor"/>
        </symbol>
        <symbol id="profile-icon" viewBox="0 0 24 24" fill="none">
            <path d="M16 10C16 11.0609 15.5786 12.0783 14.8284 12.8284C14.0783 13.5786 13.0609 14 12 14C10.9391 14 9.92172 13.5786 9.17157 12.8284C8.42143 12.0783 8 11.0609 8 10C8 8.93913 8.42143 7.92172 9.17157 7.17157C9.92172 6.42143 10.9391 6 12 6C13.0609 6 14.0783 6.42143 14.8284 7.17157C15.5786 7.92172 16 8.93913 16 10Z" fill="currentColor"/>
            <path fill-rule="evenodd" clip-rule="evenodd" d="M11.592 21.992C6.2585 21.778 2 17.386 2 12C2 6.477 6.477 2 12 2C17.523 2 22 6.477 22 12C22 17.523 17.523 22 12 22H11.863C11.7723 22 11.682 21.9973 11.592 21.992ZM5.583 18.31C5.50823 18.0953 5.48278 17.8665 5.50854 17.6406C5.5343 17.4147 5.6106 17.1975 5.73179 17.0051C5.85298 16.8128 6.01593 16.6502 6.20856 16.5294C6.40119 16.4086 6.61855 16.3328 6.8445 16.3075C10.7425 15.876 13.2815 15.915 17.1605 16.3165C17.3868 16.3401 17.6046 16.4149 17.7976 16.5354C17.9905 16.6559 18.1534 16.8189 18.2739 17.0119C18.3943 17.2048 18.4691 17.4227 18.4927 17.649C18.5162 17.8753 18.4877 18.1039 18.4095 18.3175C20.0721 16.6355 21.0031 14.365 21 12C21 7.0295 16.9705 3 12 3C7.0295 3 3 7.0295 3 12C3 14.458 3.9855 16.686 5.583 18.31Z" fill="currentColor"/>
        </symbol>
        <symbol id="google-icon" viewBox="0 0 24 24" fill="none">
            <path d="M3.064 7.51C3.89638 5.85353 5.17282 4.46106 6.7508 3.48806C8.32878 2.51507 10.1462 1.99987 12 2C14.695 2 16.959 2.991 18.69 4.605L15.823 7.473C14.786 6.482 13.468 5.977 12 5.977C9.395 5.977 7.19 7.737 6.405 10.1C6.205 10.7 6.091 11.34 6.091 12C6.091 12.66 6.205 13.3 6.405 13.9C7.191 16.264 9.395 18.023 12 18.023C13.345 18.023 14.49 17.668 15.386 17.068C15.9054 16.726 16.3501 16.2822 16.6932 15.7635C17.0363 15.2448 17.2706 14.6619 17.382 14.05H12V10.182H21.418C21.536 10.836 21.6 11.518 21.6 12.227C21.6 15.273 20.51 17.837 18.618 19.577C16.964 21.105 14.7 22 12 22C10.6866 22.0005 9.38604 21.7422 8.17254 21.2399C6.95905 20.7375 5.85645 20.0009 4.92776 19.0722C3.99907 18.1436 3.2625 17.0409 2.76013 15.8275C2.25777 14.614 1.99948 13.3134 2 12C2 10.386 2.386 8.86 3.064 7.51Z" fill="currentColor"/>
        </symbol>
        <symbol id="email-icon" viewBox="0 0 24 24" fill="none">
            <path d="M4 20C3.45 20 2.97933 19.8043 2.588 19.413C2.19667 19.0217 2.00067 18.5507 2 18V6C2 5.45 2.196 4.97933 2.588 4.588C2.98 4.19667 3.45067 4.00067 4 4H20C20.55 4 21.021 4.196 21.413 4.588C21.805 4.98 22.0007 5.45067 22 6V18C22 18.55 21.8043 19.021 21.413 19.413C21.0217 19.805 20.5507 20.0007 20 20H4ZM12 13L4 8V18H20V8L12 13ZM12 11L20 6H4L12 11ZM4 8V6V18V8Z" fill="currentColor"/>
        </symbol>
        <symbol id="whatsapp-icon" viewBox="0 0 34 34" fill="none">
            <path d="M26.9875 6.95583C25.6885 5.64414 24.1415 4.60411 22.4365 3.89634C20.7315 3.18857 18.9027 2.82721 17.0567 2.83333C9.32167 2.83333 3.01751 9.1375 3.01751 16.8725C3.01751 19.3517 3.66917 21.76 4.88751 23.885L2.90417 31.1667L10.3417 29.2117C12.3958 30.3308 14.705 30.9258 17.0567 30.9258C24.7917 30.9258 31.0958 24.6217 31.0958 16.8867C31.0958 13.1325 29.6367 9.60499 26.9875 6.95583ZM17.0567 28.5458C14.96 28.5458 12.9058 27.9792 11.1067 26.9167L10.6817 26.6617L6.26168 27.8233L7.43751 23.5167L7.15418 23.0775C5.98903 21.2175 5.37049 19.0673 5.36917 16.8725C5.36917 10.4408 10.6108 5.19916 17.0425 5.19916C20.1592 5.19916 23.0917 6.4175 25.2875 8.6275C26.375 9.70963 27.2367 10.9969 27.8228 12.4147C28.4089 13.8325 28.7076 15.3525 28.7017 16.8867C28.73 23.3183 23.4883 28.5458 17.0567 28.5458ZM23.46 19.8192C23.1058 19.6492 21.3775 18.7992 21.0658 18.6717C20.74 18.5583 20.5133 18.5017 20.2725 18.8417C20.0317 19.1958 19.3658 19.9892 19.1675 20.2158C18.9692 20.4567 18.7567 20.485 18.4025 20.3008C18.0483 20.1308 16.915 19.7483 15.5833 18.5583C14.535 17.6233 13.8408 16.4758 13.6283 16.1217C13.43 15.7675 13.6 15.5833 13.7842 15.3992C13.94 15.2433 14.1383 14.9883 14.3083 14.79C14.4783 14.5917 14.5492 14.4358 14.6625 14.2092C14.7758 13.9683 14.7192 13.77 14.6342 13.6C14.5492 13.43 13.8408 11.7017 13.5575 10.9933C13.2742 10.3133 12.9767 10.3983 12.7642 10.3842H12.0842C11.8433 10.3842 11.475 10.4692 11.1492 10.8233C10.8375 11.1775 9.93084 12.0275 9.93084 13.7558C9.93084 15.4842 11.1917 17.1558 11.3617 17.3825C11.5317 17.6233 13.8408 21.165 17.3542 22.6808C18.19 23.0492 18.8417 23.2617 19.3517 23.4175C20.1875 23.6867 20.9525 23.6442 21.5617 23.5592C22.2417 23.46 23.6442 22.7092 23.9275 21.8875C24.225 21.0658 24.225 20.3717 24.1258 20.2158C24.0267 20.06 23.8142 19.9892 23.46 19.8192Z" fill="currentColor"/>
        </symbol>
        <symbol id="linkedin-icon" viewBox="0 0 34 34" fill="none">
            <path d="M9.91667 24.0833V14.1667M29.75 11.3333V22.6667C29.75 24.5453 29.0037 26.347 27.6753 27.6753C26.347 29.0037 24.5453 29.75 22.6667 29.75H11.3333C9.45472 29.75 7.65304 29.0037 6.32466 27.6753C4.99628 26.347 4.25 24.5453 4.25 22.6667V11.3333C4.25 9.45472 4.99628 7.65304 6.32466 6.32466C7.65304 4.99628 9.45472 4.25 11.3333 4.25H22.6667C24.5453 4.25 26.347 4.99628 27.6753 6.32466C29.0037 7.65304 29.75 9.45472 29.75 11.3333Z" stroke="currentColor" stroke-width="1.5" stroke-linecap="round" stroke-linejoin="round"/>
            <path d="M15.5833 24.0833V19.4792M15.5833 19.4792V14.1667M15.5833 19.4792C15.5833 14.1667 24.0833 14.1667 24.0833 19.4792V24.0833M9.91666 9.93084L9.93082 9.91525" stroke="currentColor" stroke-width="1.5" stroke-linecap="round" stroke-linejoin="round"/>
        </symbol>
        <symbol id="instagram-icon" viewBox="0 0 34 34" fill="none">
            <path d="M24.0833 9.20833H24.7917M4.25 13.3167C4.25 10.1433 4.25 8.55667 4.86767 7.344C5.41094 6.2778 6.2778 5.41094 7.344 4.86767C8.55667 4.25 10.1433 4.25 13.3167 4.25H20.6833C23.8567 4.25 25.4433 4.25 26.656 4.86767C27.7222 5.41094 28.5891 6.2778 29.1323 7.344C29.75 8.55667 29.75 10.1433 29.75 13.3167V20.6833C29.75 23.8567 29.75 25.4433 29.1323 26.656C28.5891 27.7222 27.7222 28.5891 26.656 29.1323C25.4433 29.75 23.8567 29.75 20.6833 29.75H13.3167C10.1433 29.75 8.55667 29.75 7.344 29.1323C6.2778 28.5891 5.41094 27.7222 4.86767 26.656C4.25 25.4433 4.25 23.8567 4.25 20.6833V13.3167Z" stroke="currentColor" stroke-width="1.5" stroke-linecap="round" stroke-linejoin="round"/>
            <path d="M21.8092 18.2057C21.9676 17.5741 21.9999 16.9174 21.9045 16.2733C21.7118 14.9723 21.0101 13.8012 19.9539 13.0176C18.8977 12.234 17.5735 11.902 16.2726 12.0948C14.9716 12.2875 13.8005 12.9892 13.0169 14.0454C12.2333 15.1016 11.9013 16.4258 12.0941 17.7268C12.2868 19.0277 12.9885 20.1988 14.0447 20.9824C14.5677 21.3704 15.1619 21.6516 15.7936 21.8099C16.4252 21.9683 17.0819 22.0006 17.7261 21.9052C18.3702 21.8098 18.9893 21.5884 19.5479 21.2537C20.1065 20.919 20.5937 20.4776 20.9817 19.9546C21.3697 19.4316 21.6509 18.8374 21.8092 18.2057Z" stroke="currentColor" stroke-width="1.5" stroke-linecap="round" stroke-linejoin="round"/>
        </symbol>
    </defs>
</svg>
